<svg xmlns="http://www.w3.org/2000/svg" viewBox="0 0 32 32">
  <defs>
    <linearGradient id="bg" x1="0%" y1="0%" x2="100%" y2="100%">
      <stop offset="0%" stop-color="#3b82f6"/>
      <stop offset="100%" stop-color="#8b5cf6"/>
    </linearGradient>
  </defs>
  <rect width="32" height="32" rx="8" fill="url(#bg)"/>
  <g transform="translate(16,16)" stroke="white" stroke-width="1.8" stroke-linecap="round" fill="none">
    <!-- vertical -->
    <line y1="-9" y2="9"/>
    <line x1="-2.5" y1="-6.5" x2="0" y2="-9"/><line x1="2.5" y1="-6.5" x2="0" y2="-9"/>
    <line x1="-2.5" y1="6.5" x2="0" y2="9"/><line x1="2.5" y1="6.5" x2="0" y2="9"/>
    <!-- top-right to bottom-left -->
    <line x1="7.8" y1="-4.5" x2="-7.8" y2="4.5"/>
    <line x1="5.6" y1="-0.9" x2="7.8" y2="-4.5"/><line x1="4.7" y1="-4.2" x2="7.8" y2="-4.5"/>
    <line x1="-5.6" y1="0.9" x2="-7.8" y2="4.5"/><line x1="-4.7" y1="4.2" x2="-7.8" y2="4.5"/>
    <!-- top-left to bottom-right -->
    <line x1="-7.8" y1="-4.5" x2="7.8" y2="4.5"/>
    <line x1="-4.7" y1="-4.2" x2="-7.8" y2="-4.5"/><line x1="-5.6" y1="-0.9" x2="-7.8" y2="-4.5"/>
    <line x1="4.7" y1="4.2" x2="7.8" y2="4.5"/><line x1="5.6" y1="0.9" x2="7.8" y2="4.5"/>
  </g>
</svg>
